<?xml version="1.0" encoding="utf-8"?>
<!-- Generator: Adobe Illustrator 25.3.1, SVG Export Plug-In . SVG Version: 6.00 Build 0)  -->
<svg version="1.1" id="图层_1" xmlns="http://www.w3.org/2000/svg" xmlns:xlink="http://www.w3.org/1999/xlink" x="0px" y="0px"
	 viewBox="0 0 96 96" style="enable-background:new 0 0 96 96;" xml:space="preserve">
<style type="text/css">
	.st0{fill:#0DADCE;}
</style>
<path class="st0" d="M24,38.4c3.2-12.8,11.2-19.2,24-19.2c19.2,0,21.6,14.4,31.2,16.8c6.4,1.6,12-0.8,16.8-7.2
	C92.8,41.6,84.8,48,72,48c-19.2,0-21.6-14.4-31.2-16.8C34.4,29.6,28.8,32,24,38.4L24,38.4z M0,67.2C3.2,54.4,11.2,48,24,48
	c19.2,0,21.6,14.4,31.2,16.8c6.4,1.6,12-0.8,16.8-7.2c-3.2,12.8-11.2,19.2-24,19.2c-19.2,0-21.6-14.4-31.2-16.8
	C10.4,58.4,4.8,60.8,0,67.2z"/>
</svg>
