<?xml version="1.0" encoding="utf-8"?>
<!-- Generator: Adobe Illustrator 22.1.0, SVG Export Plug-In . SVG Version: 6.00 Build 0)  -->
<svg version="1.1" id="图层_1" xmlns="http://www.w3.org/2000/svg" xmlns:xlink="http://www.w3.org/1999/xlink" x="0px" y="0px"
	 viewBox="0 0 40 40" style="enable-background:new 0 0 40 40;" xml:space="preserve">
<style type="text/css">
	.st0{fill:#5DADE2;}
</style>
<g>
	<g>
		<path class="st0" d="M19.1,18.5c1.5-0.1,2.7-0.6,3.7-1.4c1-0.9,1.5-2,1.5-3.4c0-0.9-0.5-1.8-1.6-2.6c-1-0.8-2.2-1.2-3.3-1.2
			c-1.1,0-1.9,0-2.3,0.1v2.6l-0.3,5.8C18.2,18.4,19,18.5,19.1,18.5z"/>
	</g>
	<g>
		<path class="st0" d="M23.9,22.8c-1-0.5-1.9-0.8-2.8-1l-1.6-0.3c-0.1,0-0.3,0-0.6,0s-0.5,0-0.6,0c-0.5,0-1.1,0-1.7-0.1
			c-0.1,1.3-0.1,2.4-0.1,3.4v3.1c2.6-0.1,4.8-0.5,6.4-1.1c0.7-0.3,1.4-0.7,2-1.3c0.6-0.5,0.9-0.9,0.9-1.2
			C25.8,23.9,25.2,23.4,23.9,22.8z"/>
	</g>
	<g>
		<path class="st0" d="M20,0C9,0,0,9,0,20s9,20,20,20s20-9,20-20S31,0,20,0z M26.8,27.9c-0.9,0.8-1.9,1.4-2.9,1.8
			c-2.2,0.9-5.1,1.3-8.6,1.3c-0.4,0-0.8-0.2-1.2-0.6s-0.6-0.8-0.6-1.3v-4.4c0-1.4,0.1-3.5,0.3-6.1c0.2-2.9,0.3-4.9,0.3-6.2
			c0-0.9,0-2.3,0.2-4.1c0.1-0.5,0.2-0.8,0.5-1c1.4-0.4,2.9-0.6,4.6-0.6c1.8,0,3.4,0.6,5.1,1.8c1.9,1.4,2.8,3.1,2.8,5.1
			c0,2.6-1,4.6-3,6.1c1.5,0.6,2.6,1.3,3.4,2.1c0.7,0.8,1.1,1.6,1.1,2.5C28.8,25.6,28.1,26.8,26.8,27.9z"/>
	</g>
</g>
</svg>
